<?xml version="1.0" encoding="UTF-8"?>
<!--Generator: Apple Native CoreSVG 175-->
<!DOCTYPE svg
PUBLIC "-//W3C//DTD SVG 1.1//EN"
       "http://www.w3.org/Graphics/SVG/1.1/DTD/svg11.dtd">
<svg version="1.1" xmlns="http://www.w3.org/2000/svg" xmlns:xlink="http://www.w3.org/1999/xlink" width="17.4414" height="23.6426">
 <g>
  <rect height="23.6426" opacity="0" width="17.4414" x="0" y="0"/>
  <path d="M0 12.5098Q0 14.3262 0.678711 15.9131Q1.35742 17.5 2.54883 18.6963Q3.74023 19.8926 5.32715 20.5664Q6.91406 21.2402 8.73047 21.2402Q10.5371 21.2402 12.1191 20.5664Q13.7012 19.8926 14.8975 18.6963Q16.0938 17.5 16.7676 15.9131Q17.4414 14.3262 17.4414 12.5098Q17.4414 12.0801 17.168 11.8018Q16.8945 11.5234 16.4648 11.5234Q16.0449 11.5234 15.791 11.8018Q15.5371 12.0801 15.5371 12.5098Q15.5371 13.9258 15.0049 15.166Q14.4727 16.4062 13.54 17.3438Q12.6074 18.2812 11.3721 18.8037Q10.1367 19.3262 8.73047 19.3262Q7.30469 19.3262 6.06934 18.8037Q4.83398 18.2812 3.90137 17.3438Q2.96875 16.4062 2.44141 15.166Q1.91406 13.9258 1.91406 12.5098Q1.91406 11.084 2.43652 9.84375Q2.95898 8.60352 3.88672 7.6709Q4.81445 6.73828 6.04492 6.21094Q7.27539 5.68359 8.69141 5.68359Q9.17969 5.68359 9.61914 5.72266Q10.0586 5.76172 10.4297 5.83984L7.77344 8.47656Q7.64648 8.61328 7.57324 8.77441Q7.5 8.93555 7.5 9.12109Q7.5 9.52148 7.77344 9.79492Q8.04688 10.0684 8.4375 10.0684Q8.85742 10.0684 9.10156 9.79492L13.1152 5.76172Q13.2617 5.60547 13.335 5.42969Q13.4082 5.25391 13.4082 5.05859Q13.4082 4.6582 13.1152 4.35547L9.10156 0.283203Q8.84766 0 8.4375 0Q8.03711 0 7.76855 0.27832Q7.5 0.556641 7.5 0.966797Q7.5 1.14258 7.56836 1.30859Q7.63672 1.47461 7.76367 1.61133L10.127 3.94531Q9.80469 3.87695 9.44336 3.84277Q9.08203 3.80859 8.69141 3.80859Q6.88477 3.80859 5.30762 4.48242Q3.73047 5.15625 2.53906 6.34766Q1.34766 7.53906 0.673828 9.12109Q0 10.7031 0 12.5098Z" fill="rgba(255,255,255,0.85)"/>
 </g>
</svg>
