<?xml version="1.0" encoding="UTF-8"?>
<!--Generator: Apple Native CoreSVG 175-->
<!DOCTYPE svg
PUBLIC "-//W3C//DTD SVG 1.1//EN"
       "http://www.w3.org/Graphics/SVG/1.1/DTD/svg11.dtd">
<svg version="1.1" xmlns="http://www.w3.org/2000/svg" xmlns:xlink="http://www.w3.org/1999/xlink" width="14.4238" height="14.4434">
 <g>
  <rect height="14.4434" opacity="0" width="14.4238" x="0" y="0"/>
  <path d="M14.4238 10.8008L14.4141 0.976562Q14.4141 0.556641 14.1602 0.292969Q13.9062 0.0292969 13.4668 0.0292969L3.64258 0.0292969Q3.23242 0.0292969 2.97852 0.297852Q2.72461 0.566406 2.72461 0.917969Q2.72461 1.26953 2.99316 1.52832Q3.26172 1.78711 3.60352 1.78711L7.00195 1.78711L11.7676 1.63086L9.95117 3.22266L0.273438 12.9199Q0 13.1934 0 13.5352Q0 13.7695 0.126953 13.9795Q0.253906 14.1895 0.458984 14.3164Q0.664062 14.4434 0.908203 14.4434Q1.25977 14.4434 1.52344 14.1797L11.2207 4.49219L12.832 2.66602L12.6562 7.22656L12.6562 10.8398Q12.6562 11.1816 12.915 11.4551Q13.1738 11.7285 13.5352 11.7285Q13.8867 11.7285 14.1553 11.4648Q14.4238 11.2012 14.4238 10.8008Z" fill="rgba(255,255,255,0.85)"/>
 </g>
</svg>
