<?xml version="1.0" encoding="UTF-8"?>
<!--Generator: Apple Native CoreSVG 175-->
<!DOCTYPE svg
PUBLIC "-//W3C//DTD SVG 1.1//EN"
       "http://www.w3.org/Graphics/SVG/1.1/DTD/svg11.dtd">
<svg version="1.1" xmlns="http://www.w3.org/2000/svg" xmlns:xlink="http://www.w3.org/1999/xlink" width="14.8047" height="18.4473">
 <g>
  <rect height="18.4473" opacity="0" width="14.8047" x="0" y="0"/>
  <path d="M7.40234 18.4473Q7.7832 18.4473 8.02734 18.208Q8.27148 17.9688 8.27148 17.5879L8.27148 4.72656L8.17383 1.81641L7.61719 2.01172L11.123 5.84961L13.3496 8.03711Q13.4668 8.1543 13.6279 8.21289Q13.7891 8.27148 13.9648 8.27148Q14.3262 8.27148 14.5654 8.02734Q14.8047 7.7832 14.8047 7.42188Q14.8047 7.07031 14.541 6.78711L8.05664 0.292969Q7.91992 0.146484 7.75391 0.0732422Q7.58789 0 7.40234 0Q7.22656 0 7.06055 0.0732422Q6.89453 0.146484 6.74805 0.292969L0.273438 6.78711Q0 7.07031 0 7.42188Q0 7.7832 0.239258 8.02734Q0.478516 8.27148 0.839844 8.27148Q1.01562 8.27148 1.17676 8.21289Q1.33789 8.1543 1.45508 8.03711L3.68164 5.84961L7.17773 2.01172L6.63086 1.81641L6.5332 4.72656L6.5332 17.5879Q6.5332 17.9688 6.77734 18.208Q7.02148 18.4473 7.40234 18.4473Z" fill="rgba(255,255,255,0.85)"/>
 </g>
</svg>
