<?xml version="1.0" encoding="UTF-8"?>
<!--Generator: Apple Native CoreSVG 175-->
<!DOCTYPE svg
PUBLIC "-//W3C//DTD SVG 1.1//EN"
       "http://www.w3.org/Graphics/SVG/1.1/DTD/svg11.dtd">
<svg version="1.1" xmlns="http://www.w3.org/2000/svg" xmlns:xlink="http://www.w3.org/1999/xlink" width="14.8047" height="18.4473">
 <g>
  <rect height="18.4473" opacity="0" width="14.8047" x="0" y="0"/>
  <path d="M7.40234 0Q7.02148 0 6.77734 0.239258Q6.5332 0.478516 6.5332 0.859375L6.5332 13.7207L6.63086 16.6309L7.17773 16.4355L3.68164 12.5977L1.45508 10.4102Q1.33789 10.293 1.17676 10.2344Q1.01562 10.1758 0.839844 10.1758Q0.478516 10.1758 0.239258 10.4199Q0 10.6641 0 11.0254Q0 11.377 0.273438 11.6602L6.74805 18.1543Q6.89453 18.3008 7.06055 18.374Q7.22656 18.4473 7.40234 18.4473Q7.58789 18.4473 7.75391 18.374Q7.91992 18.3008 8.05664 18.1543L14.541 11.6602Q14.8047 11.377 14.8047 11.0254Q14.8047 10.6641 14.5654 10.4199Q14.3262 10.1758 13.9648 10.1758Q13.7891 10.1758 13.6279 10.2344Q13.4668 10.293 13.3496 10.4102L11.123 12.5977L7.61719 16.4355L8.17383 16.6309L8.27148 13.7207L8.27148 0.859375Q8.27148 0.478516 8.02734 0.239258Q7.7832 0 7.40234 0Z" fill="rgba(255,255,255,0.85)"/>
 </g>
</svg>
