<?xml version="1.0" encoding="UTF-8"?>
<!--Generator: Apple Native CoreSVG 175-->
<!DOCTYPE svg
PUBLIC "-//W3C//DTD SVG 1.1//EN"
       "http://www.w3.org/Graphics/SVG/1.1/DTD/svg11.dtd">
<svg version="1.1" xmlns="http://www.w3.org/2000/svg" xmlns:xlink="http://www.w3.org/1999/xlink" width="23.0273" height="17.9785">
 <g>
  <rect height="17.9785" opacity="0" width="23.0273" x="0" y="0"/>
  <path d="M3.08594 16.416Q2.38281 16.416 1.97754 16.0107Q1.57227 15.6055 1.57227 14.8926L1.57227 14.2969L4.57031 11.6797Q4.89258 11.3965 5.23438 11.25Q5.57617 11.1035 5.89844 11.1035Q6.66016 11.1035 7.30469 11.6992L9.16992 13.3789L13.8379 9.23828Q14.5508 8.61328 15.4102 8.61328Q15.8105 8.61328 16.2158 8.76953Q16.6211 8.92578 16.9629 9.24805L21.4551 13.4082L21.4551 14.9121Q21.4551 15.6152 21.0498 16.0156Q20.6445 16.416 19.9512 16.416ZM7.32422 9.23828Q6.66016 9.23828 6.11328 8.91113Q5.56641 8.58398 5.23926 8.03711Q4.91211 7.49023 4.91211 6.82617Q4.91211 6.16211 5.23926 5.61523Q5.56641 5.06836 6.11328 4.74121Q6.66016 4.41406 7.32422 4.41406Q7.97852 4.41406 8.52539 4.74121Q9.07227 5.06836 9.39941 5.61523Q9.72656 6.16211 9.72656 6.82617Q9.72656 7.49023 9.39941 8.03711Q9.07227 8.58398 8.52539 8.91113Q7.97852 9.23828 7.32422 9.23828ZM3.06641 17.9785L19.9609 17.9785Q21.5039 17.9785 22.2656 17.2217Q23.0273 16.4648 23.0273 14.9609L23.0273 3.02734Q23.0273 1.52344 22.2656 0.761719Q21.5039 0 19.9609 0L3.06641 0Q1.5332 0 0.766602 0.756836Q0 1.51367 0 3.02734L0 14.9609Q0 16.4648 0.766602 17.2217Q1.5332 17.9785 3.06641 17.9785Z" fill="rgba(255,255,255,0.85)"/>
 </g>
</svg>
